<?xml version="1.0" encoding="iso-8859-1"?>
<!-- Uploaded to: SVG Repo, www.svgrepo.com, Generator: SVG Repo Mixer Tools -->
<svg height="800px" width="800px" version="1.1" id="Layer_1" xmlns="http://www.w3.org/2000/svg" xmlns:xlink="http://www.w3.org/1999/xlink" 
	 viewBox="0 0 512 512" xml:space="preserve">
<circle style="fill:#72CCC5;" cx="251.401" cy="392.8" r="111.178"/>
<path style="fill:#11BBA3;" d="M277.054,478.326c-61.402,0-111.178-49.777-111.178-111.178c0-24.152,7.705-46.502,20.786-64.735
	c-28.12,20.174-46.442,53.142-46.442,90.392c0,61.402,49.776,111.178,111.178,111.178c37.25,0,70.217-18.322,90.392-46.442
	C323.557,470.621,301.207,478.326,277.054,478.326z"/>
<g>
	<path style="fill:#66BF00;" d="M225.742,332.94l8.552,25.656l25.656,17.104l17.104,34.209l8.552-34.209v-25.656l25.656-25.656
		l14.354-14.354c-19.682-17.66-45.693-28.407-74.219-28.407c-24.079,0-46.368,7.657-64.57,20.665l13.257,22.096L225.742,332.94z"/>
	<path style="fill:#66BF00;" d="M360.09,369.356l-31.723,6.345l-8.552,42.761l17.104,25.656l7.355,9.806
		c11.565-17.538,18.302-38.54,18.302-61.119C362.576,384.76,361.713,376.916,360.09,369.356z"/>
	<path style="fill:#66BF00;" d="M251.398,435.566l-25.656-25.656l-42.761-8.552l-25.656-34.208l-15.398,6.16
		c-1.119,6.331-1.706,12.845-1.706,19.497c0,44.109,25.686,82.217,62.917,100.184l39.709-31.767L251.398,435.566z"/>
</g>
<path style="fill:#58AB23;" d="M166.559,379.46l-9.234-12.312l-15.398,6.16c-1.119,6.331-1.706,12.845-1.706,19.497
	c0,44.109,25.686,82.217,62.917,100.184l29.742-23.794C197.047,453.663,171.006,419.817,166.559,379.46z"/>
<g>
	<path style="fill:#B9873C;" d="M485.485,311.274l-45.941-35.339v-122.59h-85.521v56.804l-90.893-69.918
		c-6.915-5.322-16.547-5.322-23.464,0L17.31,311.274c-8.424,6.479-10,18.56-3.519,26.984c6.479,8.423,18.56,9.999,26.984,3.519
		L251.398,179.76l210.623,162.018c3.497,2.691,7.623,3.992,11.719,3.992c5.768,0,11.476-2.585,15.266-7.511
		C495.484,329.835,493.909,317.754,485.485,311.274z"/>
	<path style="fill:#B9873C;" d="M485.485,311.274L263.129,140.232c-6.915-5.322-16.547-5.322-23.464,0L17.31,311.274
		c-8.424,6.479-10,18.56-3.519,26.984c6.479,8.423,18.56,9.999,26.984,3.519L251.398,179.76l210.623,162.018
		c3.497,2.691,7.623,3.992,11.719,3.992c5.768,0,11.476-2.585,15.266-7.511C495.484,329.835,493.909,317.754,485.485,311.274z"/>
	<polygon style="fill:#B9873C;" points="354.023,153.345 354.023,210.15 439.545,275.936 439.545,153.345 	"/>
</g>
<polygon style="fill:#A3682D;" points="353.793,187.737 353.793,216.109 439.314,281.896 439.314,252.219 "/>
<path style="fill:#66BF00;" d="M371.128,59.272c0-14.17,25.656-51.313,25.656-51.313s25.656,37.143,25.656,51.313
	s-11.487,25.656-25.656,25.656C382.614,84.928,371.128,73.442,371.128,59.272z"/>
<path style="fill:#58AB23;" d="M409.612,77.445c-14.17,0-25.656-11.487-25.656-25.656c0-8.6,9.448-25.655,16.879-37.741
	c-2.428-3.739-4.05-6.089-4.05-6.089s-25.656,37.143-25.656,51.313s11.487,25.656,25.656,25.656c7.418,0,14.097-3.151,18.78-8.184
	C413.653,77.198,411.662,77.445,409.612,77.445z"/>
<path style="fill:#66BF00;" d="M444.769,79.587c12.558-6.564,57.36-1.034,57.36-1.034s-21.032,39.944-33.59,46.509
	c-12.558,6.565-28.058,1.705-34.623-10.852S432.211,86.152,444.769,79.587z"/>
<path style="fill:#58AB23;" d="M449.952,106.728c-5.227-10-3.205-21.861,4.175-29.596c-3.853,0.501-7.12,1.286-9.358,2.456
	c-12.558,6.564-17.416,22.066-10.852,34.622c6.564,12.558,22.066,17.416,34.623,10.852c1.781-0.931,3.736-2.551,5.775-4.616
	C464.51,121.063,454.796,115.996,449.952,106.728z"/>
<path d="M456.71,135.995c5.25,0,10.577-1.23,15.543-3.827c14.061-7.349,33.262-42.839,36.97-49.878
	c2.571-4.884-0.648-11.018-6.113-11.693c-7.897-0.975-47.995-5.464-62.057,1.885c-7.971,4.167-13.843,11.188-16.533,19.771
	c-2.621,8.363-1.907,17.23,1.986,25.055L404.8,135.913V91.974c14.709-3.607,25.656-16.897,25.656-32.702
	c0-15.866-22.556-49.323-27.077-55.87c-3.133-4.536-10.061-4.536-13.194,0c-4.521,6.547-27.077,40.004-27.077,55.87
	c0,15.805,10.948,29.094,25.656,32.702v53.354h-34.743c-4.429,0-8.018,3.59-8.018,8.018v40.522l-77.986-59.989
	c-9.786-7.529-23.455-7.53-33.242-0.001L94.048,242.129c-3.51,2.7-4.166,7.733-1.467,11.244c2.7,3.511,7.733,4.166,11.244,1.467
	l140.73-108.253c4.03-3.1,9.657-3.1,13.687,0l90.893,69.918c5.175,3.978,12.906,0.16,12.906-6.355v-48.787h69.486v114.573
	c0,2.49,1.156,4.837,3.129,6.355l45.942,35.34c4.906,3.774,5.826,10.835,2.054,15.74c-3.731,4.849-10.886,5.789-15.741,2.053
	L256.287,173.405c-2.883-2.216-6.896-2.216-9.777,0L35.886,335.423c-4.853,3.731-12.011,2.795-15.741-2.054
	c-3.733-4.851-2.793-12.011,2.054-15.74l52.308-40.238c3.51-2.7,4.166-7.733,1.467-11.244c-2.7-3.51-7.734-4.167-11.244-1.467
	l-52.308,40.238c-11.773,9.056-14.052,26.442-4.987,38.227c9.164,11.914,26.312,14.151,38.227,4.987l205.735-158.257
	l205.734,158.257c11.798,9.073,29.167,6.793,38.229-4.987c9.164-11.915,6.926-29.063-4.987-38.227l-42.812-32.932V153.345
	c0-4.428-3.589-8.018-8.018-8.018h-21.087l18.411-15.781C442.634,133.723,449.599,135.995,456.71,135.995z M439.823,97.05
	c1.409-4.496,4.485-8.174,8.661-10.357c3.064-1.602,10.637-2.286,19.939-2.286c6.413,0,13.65,0.325,20.791,0.898
	c-8.832,15.169-19.205,29.941-24.389,32.65c-4.873,2.549-10.404,2.582-15.106,0.575l12.147-10.412
	c3.362-2.882,3.751-7.943,0.869-11.305c-2.88-3.36-7.942-3.752-11.305-0.869l-11.972,10.261
	C438.776,103.204,438.877,100.066,439.823,97.05z M379.145,59.272c0-5.841,8.287-21.878,17.64-36.74
	c9.353,14.855,17.638,30.89,17.638,36.74c0,6.837-3.919,12.765-9.621,15.691V59.272c0-4.428-3.589-8.018-8.018-8.018
	c-4.429,0-8.018,3.59-8.018,8.018v15.691C383.064,72.037,379.145,66.109,379.145,59.272z"/>
<path d="M251.398,273.61c-65.724,0-119.195,53.471-119.195,119.195S185.674,512,251.398,512s119.195-53.471,119.195-119.195
	S317.122,273.61,251.398,273.61z M313.683,310.629l-33.747,33.747c-1.503,1.503-2.348,3.543-2.348,5.669v24.67l-3.055,12.224
	l-7.413-14.823c-0.623-1.248-1.563-2.312-2.724-3.085l-23.368-15.579l-7.682-23.047c-0.799-2.395-2.677-4.273-5.071-5.071
	l-22.843-7.615l-7.766-12.945c15.659-9.593,34.06-15.13,53.73-15.13C274.778,289.645,296.363,297.468,313.683,310.629z
	 M148.238,392.805c0-4.663,0.316-9.253,0.919-13.754l5.44-2.177l21.969,29.293c1.183,1.578,2.908,2.665,4.842,3.051l40.38,8.076
	l20.436,20.436l-6.236,18.709l-33.78,27.024C170.085,465.965,148.238,431.889,148.238,392.805z M251.398,495.965
	c-11.373,0-22.32-1.855-32.56-5.269l29.016-23.213c1.207-0.965,2.109-2.259,2.598-3.725l8.552-25.656
	c0.96-2.881,0.211-6.057-1.937-8.205l-25.656-25.656c-1.119-1.119-2.544-1.883-4.098-2.193l-39.757-7.951l-23.819-31.758
	c-2.175-2.9-6.026-3.982-9.392-2.633l-0.763,0.305c6.042-17.973,16.911-33.748,31.055-45.783l8.571,14.286
	c0.985,1.641,2.524,2.876,4.34,3.481l21.853,7.284l7.284,21.853c0.563,1.692,1.675,3.147,3.159,4.136l23.885,15.924l16.152,32.304
	c1.509,3.018,4.851,4.796,8.196,4.365c3.237-0.417,5.961-2.838,6.753-6.006l8.552-34.208c0.158-0.636,0.239-1.289,0.239-1.945
	v-22.336l32.062-32.061c11.23,11.664,19.745,25.957,24.523,41.852l-23.414,4.683c-3.174,0.635-5.655,3.116-6.29,6.29l-8.552,42.761
	c-0.417,2.085,0.012,4.25,1.191,6.02l17.104,25.656c0.082,0.124,0.168,0.245,0.257,0.363l3.846,5.129
	C315.543,479.463,285.363,495.965,251.398,495.965z M343.415,439.408l-15.087-22.63l6.852-34.263l18.427-3.685
	c0.622,4.572,0.95,9.236,0.95,13.976C354.558,409.565,350.537,425.401,343.415,439.408z"/>
</svg>